<?xml version="1.0" encoding="UTF-8"?>
<svg width="194px" height="38px" viewBox="0 0 194 38" version="1.1" xmlns="http://www.w3.org/2000/svg" xmlns:xlink="http://www.w3.org/1999/xlink">
    <title>Group 19</title>
    <defs>
        <polygon id="path-1" points="0.390768539 0 23.2779413 0 23.2779413 28.9507385 0.390768539 28.9507385"></polygon>
    </defs>
    <g id="Page-1" stroke="none" stroke-width="1" fill="none" fill-rule="evenodd">
        <g id="COOKIE-BAR" transform="translate(-80.000000, -31.000000)">
            <g id="Group-19" transform="translate(80.000000, 31.000000)">
                <g id="Group-16">
                    <path d="M0.0608764045,0.655573077 C-0.0202921348,0.524765385 -0.0202921348,0.360342308 0.0608764045,0.229534615 C0.142044944,0.0979961538 0.272494382,7.30769231e-05 0.418162921,7.30769231e-05 L10.5308933,7.30769231e-05 C10.8881798,7.30769231e-05 11.246191,0.0819192308 11.5715899,0.278496154 C11.896264,0.458996154 12.1564382,0.721342308 12.3354438,1.03265 L22.5612303,17.9017269 C22.7569045,18.2291115 22.8706854,18.6061885 22.8706854,19.01615 C22.8706854,19.4261115 22.7569045,19.8031885 22.5612303,20.1305731 L17.2128034,28.9509577 L0.0608764045,0.655573077 Z" id="Fill-1" fill="#E32421"></path>
                    <path d="M17.2128034,9.04904231 L0.0608764045,37.3444269 C-0.0202921348,37.4752346 -0.0202921348,37.6389269 0.0608764045,37.7704654 C0.142044944,37.91735 0.288438202,37.9831192 0.434831461,37.9831192 L10.5468371,37.9831192 C10.9048483,37.9831192 11.2621348,37.9012731 11.5875337,37.7039654 C11.9129326,37.5234654 12.1731067,37.26185 12.3521124,36.9505423 L22.5778989,20.0982731 C22.7728483,19.7694269 22.8866292,19.3930808 22.8866292,18.9831192 C22.8866292,18.5738885 22.7728483,18.1968115 22.5778989,17.8686962 L17.2128034,9.04904231 Z" id="Fill-3" fill="#991A14"></path>
                    <path d="M39.1606315,37.3438423 C39.2418,37.47465 39.2418,37.6390731 39.1606315,37.7698808 C39.0794629,37.9174962 38.9330697,37.9832654 38.7866764,37.9832654 L28.6746708,37.9832654 C28.3166596,37.9832654 27.959373,37.9014192 27.6339742,37.7048423 C27.3085753,37.5243423 27.0484011,37.2619962 26.8701202,36.9506885 L16.643609,20.0816115 C16.4486596,19.7534962 16.3348787,19.3764192 16.3348787,18.9664577 C16.3348787,18.5572269 16.4486596,18.18015 16.643609,17.8520346 L21.9927607,9.03238077 L39.1606315,37.3438423 Z" id="Fill-5" fill="#66140D"></path>
                    <g id="Group-9" transform="translate(15.943820, 0.000000)">
                        <mask id="mask-2" fill="white">
                            <use xlink:href="#path-1"></use>
                        </mask>
                        <g id="Clip-8"></g>
                        <path d="M6.04865056,28.9507385 L23.2165213,0.655353846 C23.2984146,0.524546154 23.2984146,0.360853846 23.2165213,0.229315385 C23.1353528,0.0985076923 22.9889596,-0.000146153846 22.8425663,-0.000146153846 L12.7305607,-0.000146153846 C12.3732742,-0.000146153846 12.0152629,0.0817 11.689864,0.278276923 C11.3651899,0.458776923 11.1050157,0.721123077 10.9260101,1.03243077 L0.700223596,17.8854308 C0.504549438,18.2128154 0.390768539,18.5898923 0.390768539,18.9998538 C0.390768539,19.4098154 0.504549438,19.7868923 0.700223596,20.1150077 L6.04865056,28.9507385 Z" id="Fill-7" fill="#E30512" mask="url(#mask-2)"></path>
                    </g>
                    <path d="M47.5172225,37.9997077 L47.5172225,16.9016692 L54.2969697,16.9016692 C56.8653742,16.9016692 58.5402,16.9995923 59.3199978,17.2129769 C60.5237562,17.5242846 61.5151719,18.2126692 62.3283067,19.2781308 C63.1407169,20.3443231 63.5472843,21.7042846 63.5472843,23.3930923 C63.5472843,24.6880154 63.3197225,25.7702846 62.8479303,26.6552462 C62.3768629,27.5409385 61.7912899,28.2293231 61.0759921,28.7372077 C60.3606944,29.2458231 59.6294528,29.5732077 58.8815427,29.7376308 C57.8734584,29.9342077 56.4102506,30.0328615 54.5078629,30.0328615 L51.7604528,30.0328615 L51.7604528,37.9836308 L47.5172225,37.9836308 L47.5172225,37.9997077 Z M51.7278404,20.4751308 L51.7278404,26.4586692 L54.0367955,26.4586692 C55.6949528,26.4586692 56.816818,26.3439385 57.3690539,26.1305538 C57.9220146,25.9179 58.3771382,25.5569 58.6865933,25.0979769 C59.0112674,24.6229769 59.1576607,24.0814769 59.1576607,23.4588615 C59.1576607,22.6879 58.9300989,22.0652846 58.4909191,21.5574 C58.0357955,21.0655923 57.4828348,20.7535538 56.8001494,20.6227462 C56.2964697,20.5240923 55.2883854,20.4751308 53.7599528,20.4751308 L51.7278404,20.4751308 Z" id="Fill-10" fill="#FFFFFF"></path>
                    <path d="M77.9518736,37.9997077 L77.9518736,16.9016692 L86.8449017,16.9016692 C89.0719635,16.9016692 90.6982331,17.0982462 91.7222612,17.4753231 C92.7303455,17.8524 93.5427556,18.5239769 94.160941,19.4915154 C94.7624579,20.4590538 95.0711882,21.5734769 95.0711882,22.8194385 C95.0711882,24.4095923 94.6160646,25.7045154 93.6891489,26.7370923 C92.7629579,27.7704 91.3809185,28.4259 89.5437556,28.6882462 C90.4540028,29.2290154 91.2178567,29.8194769 91.8034298,30.4589 C92.4049466,31.0983231 93.2014129,32.2456308 94.2094972,33.8847462 L96.7619579,37.9997077 L91.7055927,37.9997077 L88.6494522,33.4097462 C87.5601994,31.7699 86.8282331,30.7373231 86.4223904,30.3112846 C86.015823,29.8852462 85.5933118,29.5900154 85.154132,29.4255923 C84.6990084,29.2619 83.9996545,29.1961308 83.0241826,29.1961308 L82.1624916,29.1961308 L82.1624916,37.9997077 L77.9518736,37.9997077 Z M82.1624916,25.8192462 L85.2838567,25.8192462 C87.3159691,25.8192462 88.5682837,25.7374 89.0719635,25.5569 C89.576368,25.3764 89.9662669,25.0819 90.2590534,24.6719385 C90.5518399,24.2619769 90.6815646,23.7212077 90.6815646,23.0817846 C90.6815646,22.3765923 90.4866152,21.8029385 90.1126601,21.3600923 C89.7387051,20.9179769 89.2024129,20.6556308 88.5190028,20.5409 C88.1776601,20.4912077 87.153632,20.4751308 85.43025,20.4751308 L82.1298792,20.4751308 L82.1624916,25.8192462 Z" id="Fill-12" fill="#FFFFFF"></path>
                    <path d="M111.166547,16.9012308 L118.888429,16.9012308 C120.62848,16.9012308 121.961963,17.0320385 122.871485,17.3111923 C124.091188,17.6714615 125.147828,18.3276923 126.026188,19.2455385 C126.903822,20.1801923 127.570564,21.3114231 128.025688,22.6560385 C128.480811,23.9999231 128.708373,25.6719231 128.708373,27.6391538 C128.708373,29.3769231 128.49748,30.8684231 128.0583,32.1304615 C127.537952,33.6716538 126.790042,34.9015385 125.81457,35.8522692 C125.082603,36.5735385 124.091188,37.1303846 122.838873,37.5403462 C121.911957,37.8355769 120.661092,37.9831923 119.099322,37.9831923 L111.150603,37.9831923 L111.166547,16.9012308 Z M115.393834,20.4746923 L115.393834,34.4418846 L118.547811,34.4418846 C119.733452,34.4418846 120.579199,34.3775769 121.100272,34.2453077 C121.782233,34.0655385 122.351862,33.7863846 122.806985,33.3603462 C123.261384,32.9503846 123.62012,32.262 123.912907,31.3273462 C124.204244,30.3766154 124.335418,29.0977692 124.335418,27.4586538 C124.335418,25.8356154 124.189025,24.5743077 123.912907,23.7046923 C123.62012,22.8358077 123.229497,22.1474231 122.709148,21.6556154 C122.189525,21.1638077 121.538727,20.8356923 120.758204,20.6551923 C120.173356,20.5243846 119.018879,20.4586154 117.295497,20.4586154 L115.393834,20.4586154 L115.393834,20.4746923 Z" id="Fill-14" fill="#FFFFFF"></path>
                </g>
                <polygon id="Fill-17" fill="#FFFFFF" points="143 17 143 38 159 38 159 34.4584185 147.248793 34.4584185 147.248793 28.7478092 157.807395 28.7478092 157.807395 25.2062277 147.248793 25.2062277 147.248793 20.5568564 158.590566 20.5568564 158.590566 17"></polygon>
                <polygon id="Fill-18" fill="#FFFFFF" points="189.396341 17 184.141285 32.5456342 178.703302 17 174 17 181.672516 38 186.309637 38 194 17"></polygon>
            </g>
        </g>
    </g>
</svg>